Coordinates
version=1
nRows=17
nColumns=36
inDegrees=yes

Units are S.I. units (second, meters, Newtons, ...)
If the header above contains a line with 'inDegrees', this indicates whether rotational values are in degrees (yes) or radians (no).

endheader
time	pelvis_tilt	pelvis_list	pelvis_rotation	pelvis_tx	pelvis_ty	pelvis_tz	hip_flexion_r	hip_adduction_r	hip_rotation_r	knee_angle_r	knee_angle_r_beta	ankle_angle_r	subtalar_angle_r	mtp_angle_r	hip_flexion_l	hip_adduction_l	hip_rotation_l	knee_angle_l	knee_angle_l_beta	ankle_angle_l	subtalar_angle_l	mtp_angle_l	lumbar_extension	lumbar_bending	lumbar_rotation	arm_flex_r	arm_add_r	arm_rot_r	elbow_flex_r	pro_sup_r	arm_flex_l	arm_add_l	arm_rot_l	elbow_flex_l	pro_sup_l
      0.00000000	     -0.03105687	     -3.98344890	      2.57485447	     -0.17590508	      0.90050428	     -0.57848153	     -1.18794983	      3.31787738	      1.99972812	      2.53241530	      0.04419898	      7.34438601	     -7.27400637	     -5.86257603	      3.77795908	    -16.92046728	     -9.21713718	      8.79049234	      0.15342303	      7.45368402	     10.62541652	     -5.86257603	     -8.68320441	      4.81097974	     -3.16203769	     -0.63953552	     -6.61712983	     -9.20908095	    123.79860557	     96.83539577	     -0.79736853	     -1.29832520	     -8.13914339	    117.18404413	    100.46940862
      0.01000000	      0.19694984	     -3.95931085	      2.48494402	     -0.17591645	      0.90079685	     -0.57840807	     -1.47802139	      3.32934533	      2.41400969	      2.43295746	      0.04246312	      6.67448683	     -8.52505599	     -6.10642283	      3.49599061	    -16.96679009	     -9.92727006	      8.81669076	      0.15388028	      7.70168389	     11.47274114	     -6.10642283	     -8.97013856	      4.78442631	     -3.08063779	     -0.55206166	     -6.63741555	     -9.15400487	    123.89055047	     95.85500234	     -0.73533473	     -1.30517457	     -8.09609696	    117.33463826	     99.50938075
      0.02000000	      0.20357837	     -3.96696453	      2.46609970	     -0.17600034	      0.90084128	     -0.57841166	     -1.48476932	      3.34530851	      2.62825171	      2.42476746	      0.04232018	      6.46564730	     -8.92655898	     -6.39724840	      3.47837416	    -16.97014054	     -9.91711706	      8.80410649	      0.15366065	      7.68772359	     11.35976109	     -6.39724840	     -8.99568786	      4.79832744	     -3.08614821	     -0.51578337	     -6.65262368	     -9.18974211	    123.81807242	     96.80394444	     -0.69622142	     -1.30597630	     -8.14351760	    117.25373424	    100.33169133
      0.03000000	      0.23298419	     -3.99266222	      2.46562656	     -0.17607522	      0.90091295	     -0.57845131	     -1.46832967	      3.37218783	      2.54079725	      2.50647699	      0.04374628	      6.54040072	     -8.77857889	     -6.63423464	      3.46134221	    -17.00493686	     -9.92603948	      8.82954524	      0.15410464	      7.72180047	     11.47171747	     -6.63423464	     -9.05025345	      4.85249150	     -3.10899419	     -0.44169314	     -6.68739512	     -9.19288255	    123.84340736	     96.77944508	     -0.67308191	     -1.29405823	     -8.14047575	    117.26898775	    100.18381925
      0.04000000	      0.32205097	     -3.98082573	      2.49761612	     -0.17618872	      0.90104016	     -0.57858289	     -1.47351200	      3.34525877	      2.18917085	      2.66653647	      0.04653984	      6.96820506	     -8.02409520	     -6.71372794	      3.32354549	    -16.94424260	     -9.71537202	      8.69692144	      0.15178991	      7.53062863	     11.06137765	     -6.71372794	     -9.19121887	      4.86902763	     -3.14821363	     -0.31841571	     -6.73139314	     -9.16205659	    123.93032455	     95.90715049	     -0.61559941	     -1.30085022	     -8.05783933	    117.39651907	     99.27281773
      0.05000000	      0.27500209	     -4.01720172	      2.46156277	     -0.17637080	      0.90097489	     -0.57855746	     -1.42316679	      3.39830621	      2.66221688	      2.64427557	      0.04615132	      6.51505435	     -8.96279969	     -7.01060479	      3.37753421	    -16.97609855	     -9.63113954	      8.69924796	      0.15183052	      7.49218818	     10.86603298	     -7.01060479	     -9.17944105	      4.93318913	     -3.10482606	     -0.22621588	     -6.80551670	     -9.25955058	    123.78342157	     98.35370523	     -0.55310116	     -1.32667337	     -8.11119849	    117.12303876	    101.52734697
      0.06000000	      0.49538462	     -3.97021383	      2.60599364	     -0.17645639	      0.90128658	     -0.57885807	     -1.55213611	      3.32309119	      1.92098969	      2.84823486	      0.04971108	      7.10267732	     -7.75913711	     -7.13441390	      3.10295488	    -16.85577497	     -9.23341462	      8.48963986	      0.14817217	      7.11205231	     10.15472500	     -7.13441390	     -9.45448223	      4.93579456	     -3.27768132	     -0.04799410	     -6.92415450	     -9.05998398	    123.96997422	     93.98524086	     -0.47739147	     -1.36415773	     -7.81741944	    117.54841000	     97.33637802
      0.07000000	      0.24183972	     -4.03876009	      2.43443924	     -0.17672473	      0.90094407	     -0.57855677	     -1.17701826	      3.42419051	      2.73440815	      2.99473907	      0.05226806	      6.61659461	     -9.05873991	     -7.27603094	      3.45749528	    -17.00592049	     -9.66081418	      8.74744441	      0.15267171	      7.51512769	     10.95565370	     -7.27603094	     -9.24559506	      5.02690720	     -3.13895618	     -0.03604563	     -6.96692965	     -9.20823060	    123.82264053	     98.68644276	     -0.51350182	     -1.37943072	     -8.08394930	    117.08669913	    102.13640398
      0.08000000	      0.25107302	     -4.03145576	      2.40995763	     -0.17701323	      0.90098668	     -0.57861726	     -0.95960348	      3.39082753	      2.33357050	      3.39478399	      0.05925016	      7.26130508	     -8.11289542	     -7.29836498	      3.43986151	    -16.95634853	     -9.43505921	      8.70894461	      0.15199976	      7.39117036	     10.41099654	     -7.29836498	     -9.34275401	      5.06560404	     -3.14798238	      0.08857973	     -7.02161955	     -9.15611866	    123.97297153	     97.24381838	     -0.47637541	     -1.40352833	     -7.93419124	    117.25023884	    100.71500848
      0.09000000	      0.18597875	     -4.04961955	      2.30626476	     -0.17743034	      0.90093463	     -0.57841483	     -0.79277312	      3.45917487	      2.98741959	      3.51498556	      0.06134807	      6.60205417	     -9.49806640	     -7.38668419	      3.57017322	    -17.02537353	     -9.72380832	      8.84610873	      0.15439372	      7.48754618	     10.82653617	     -7.38668419	     -9.37821183	      5.10608717	     -3.06927678	      0.24844065	     -7.11512901	     -9.18366532	    123.88007194	     98.70164009	     -0.38857232	     -1.43711891	     -7.97075447	    117.10238057	    102.28414296
      0.10000000	      0.08082580	     -4.07630023	      2.27145469	     -0.17804801	      0.90085549	     -0.57824771	     -0.49968301	      3.52316920	      3.20564951	      3.77897592	      0.06595557	      6.47055075	    -10.04701812	     -7.44459925	      3.82158349	    -17.06200863	     -9.58800554	      9.03571279	      0.15770294	      7.39698596	     10.56862110	     -7.44459925	     -9.40925325	      5.17956820	     -3.07721208	      0.44505823	     -7.23008237	     -9.08034851	    123.93496714	     98.63593299	     -0.27273813	     -1.48167827	     -7.96484869	    117.16976042	    101.87145990
      0.11000000	     -0.07493006	     -4.08576547	      2.18592648	     -0.17875667	      0.90076583	     -0.57806941	     -0.06363438	      3.55824649	      3.31041113	      4.18655382	      0.07306915	      6.48461354	    -10.30215812	     -7.45341903	      4.16507878	    -17.11432070	     -9.75601307	      9.32962109	      0.16283261	      7.51880388	     10.81955584	     -7.45341903	     -9.42037983	      5.23912431	     -3.06366477	      0.62685135	     -7.35438450	     -8.92359740	    124.07082279	     97.64661835	     -0.19097342	     -1.49046343	     -7.99419695	    117.31171807	    100.96499992
      0.12000000	     -0.32802437	     -4.07505992	      2.06098310	     -0.17958105	      0.90059154	     -0.57791375	      0.54027554	      3.55489603	      3.41757479	      4.70843872	      0.08217776	      6.59058353	    -10.44992601	     -7.47055099	      4.60553747	    -17.10266107	     -9.68295666	      9.59753391	      0.16750857	      7.41030934	     10.39923867	     -7.47055099	     -9.35419912	      5.29300003	     -3.00249788	      0.82732424	     -7.38793243	     -8.87660109	    124.06710119	     98.72624619	     -0.06594765	     -1.47381657	     -8.12755330	    117.25268835	    101.77945177
      0.13000000	     -0.41366408	     -4.01439311	      2.09637626	     -0.18044678	      0.90061857	     -0.57801127	      1.05996855	      3.45432327	      2.75590286	      5.42717783	      0.09472212	      7.35183779	     -9.48552359	     -7.47713595	      4.87785743	    -16.96341990	     -9.02937732	      9.78404882	      0.17076387	      7.15417549	      9.23266441	     -7.47713595	     -9.50482143	      5.32673953	     -3.08562502	      1.14069985	     -7.48465756	     -8.63317746	    124.49699751	     94.09348726	      0.09218016	     -1.50469798	     -7.90309020	    117.78247533	     97.21575902
      0.14000000	     -0.79851223	     -4.08662254	      1.94433664	     -0.18155810	      0.90020890	     -0.57752667	      1.85285645	      3.62003301	      3.59670198	      6.00389499	      0.10478774	      6.72670749	    -11.15032020	     -7.48646614	      5.67683789	    -17.19908492	     -9.62017469	     10.42960987	      0.18203103	      7.43114316	     10.17671937	     -7.48646614	     -9.36010437	      5.46381515	     -2.96210330	      1.44089038	     -7.67621259	     -8.72960023	    124.20859460	     99.08953303	      0.26186520	     -1.53525151	     -8.09516051	    117.34544467	    101.42259404
      0.15000000	     -1.08458306	     -4.05637196	      1.92350228	     -0.18286949	      0.89993862	     -0.57718124	      2.66699220	      3.63647559	      3.73534602	      6.82114652	      0.11905147	      6.80543340	    -11.69905764	     -7.49212787	      6.33404560	    -17.20473869	     -9.40228661	     10.88682196	      0.19001089	      7.35290877	      9.92668145	     -7.49212787	     -9.37370764	      5.48482643	     -3.00794385	      1.80633182	     -7.88948663	     -8.53161063	    124.25798848	     99.12556391	      0.47126614	     -1.64039891	     -8.11183506	    117.45553446	    101.31580442
      0.16000000	     -1.44995877	     -4.01235219	      1.87740519	     -0.18437406	      0.89952923	     -0.57681777	      3.69029992	      3.61095046	      3.69707673	      7.86938429	      0.13734667	      7.38108757	    -11.49597219	     -7.49272928	      7.09992323	    -17.18877433	     -9.13419454	     11.37551146	      0.19854013	      7.22968159	      9.53017694	     -7.49272928	     -9.36306188	      5.49444429	     -2.97539323	      2.12463850	     -8.07079061	     -8.34909737	    124.57260736	     97.85073138	      0.72343057	     -1.75516737	     -7.99456633	    117.76340123	     99.91594571
